# xmcd
#
# Track frame offsets:
#	150
#	9925
#	23787
#	35775
#	42025
#	48937
#	55787
#	64450
#	78162
#	88187
#	94075
#	105500
#	118475
#	126712
#	135600
#	145000
#	153112
#	162300
#	175200
#
# Disc length: 2515 seconds
#
# Revision: 0
# Processed by: cddbd v1.5.1PL0 Copyright (c) Steve Scherf et al.
# Submitted via: dBpowerAMP V4.0
#
DISCID=fe09d113
DTITLE=The El;k River Dulcimer and Old Time Music Co. - Made In The USA
DYEAR=1989
DGENRE=Bluegrass
TTITLE0=Whiskey Before Breakfast
TTITLE1=Ragtime Annie
TTITLE2=Arkansas Traveler
TTITLE3=Old Joe Clark
TTITLE4=Ground Speed
TTITLE5=Mountain Dew
TTITLE6=Ridin' The Waves
TTITLE7=Ruben
TTITLE8=Fireball Mail
TTITLE9=Cripple Creek
TTITLE10=Granny Lynn Rag
TTITLE11=Shuckin' The Corn
TTITLE12=Now We're Hitchin'
TTITLE13=Foggy MTN. Breakdown
TTITLE14=Orange Blossom Special
TTITLE15=Buffalo Gals
TTITLE16=John Hardy
TTITLE17=Soldier's Joy
TTITLE18=Red Wing
EXTD=The Elk River Dulcimer and Old Time Music Co. - Made In The USA - Instrumental Bluegrass from Branson, MO 1988-1989
EXTT0=
EXTT1=
EXTT2=
EXTT3=
EXTT4=
EXTT5=
EXTT6=
EXTT7=
EXTT8=
EXTT9=
EXTT10=
EXTT11=
EXTT12=
EXTT13=
EXTT14=
EXTT15=
EXTT16=
EXTT17=
EXTT18=
PLAYORDER=
